<?xml version="1.0" encoding="UTF-8"?>
<svg width="31" height="28" fill="none" version="1.1" viewBox="0 0 31 28" xmlns="http://www.w3.org/2000/svg">
 <g fill="#390">
  <path d="m31 20.375c-0.0178 0.0072-0.0477 0.0096-0.0525 0.0215-0.2451 0.5716-0.7304 0.6145-1.2756 0.6074-1.5328-0.0199-3.0673-0.047-4.5976 0.0032-0.6973 0.023-1.2732-0.2452-1.8839-0.4657-0.0041-0.043-0.0081-0.0868-0.017-0.1719-0.0526 0.0636-0.0793 0.0955-0.106 0.1281-0.1326-0.1234-0.2669-0.2451-0.3979-0.3701-0.821-0.7873-1.3516-1.7011-1.3646-2.8696-0.0056-0.5325 0.0777-1.0364 0.2621-1.5307 0.0154-0.0215 0.0307-0.0438 0.0461-0.0653 0.6285-1.3118 1.642-2.1579 3.1352-2.2415 1.5546-0.0868 3.1166-0.0509 4.6761-0.0677 0.1512-0.0015 0.3025 0 0.4537 0 0.4296 0 0.783 0.1378 0.9958 0.5318 0.042 0.0589 0.0849 0.1178 0.127 0.1767v6.3146l-9e-4 -8e-4zm-4.541-3.1736c0.0065-0.722-0.5783-1.315-1.3306-1.2863-0.7077 0.027-1.193 0.5253-1.2658 1.256-0.0591 0.6002 0.6519 1.3158 1.265 1.2935 0.7426-0.0278 1.3225-0.5993 1.3314-1.2624v-8e-4z"/>
  <path d="m16.206 1.2847c0.0987-0.05731 0.1965-0.11383 0.2952-0.17114 0.017 0.00716 0.0332 0.01512 0.0494 0.02229-0.0138-0.01035-0.0284-0.0199-0.0421-0.03025 0.0987-0.05731 0.1966-0.11383 0.2952-0.17114 0.017 0.007164 0.0332 0.015124 0.0494 0.022288-0.0138-0.010348-0.0283-0.0199-0.0421-0.030248 0.0987-0.057312 0.1966-0.11383 0.2953-0.17114 0.0169 0.007164 0.0331 0.015124 0.0493 0.022288-0.0138-0.010348-0.0283-0.0199-0.0421-0.030248 0.0987-0.057311 0.1966-0.11383 0.2953-0.17114 0.017 0.007164 0.0331 0.015124 0.0493 0.022288-0.0137-0.010348-0.0283-0.0199-0.0421-0.030248 0.2144-0.11064 0.4304-0.21731 0.6415-0.33352 0.0825-0.045372 0.1529-0.11224 0.2289-0.16875 0.0801-0.022288 0.1593-0.044576 0.2394-0.066068h0.3632c0.601 0.16636 0.7943 0.70525 1.0661 1.1582 0.766 1.2744 1.5118 2.5599 2.2656 3.8407-8e-4 0.03821-0.0024 0.07562-0.0032 0.11383-1.5635 0.00239-3.1263 0.00716-4.6898 0.00716-2.421 0-4.8419-7.9e-4 -7.2629-0.00716-0.0995 0-0.199-0.05652-0.29846-0.08597 0.02589-0.00955 0.05096-0.02069 0.07686-0.03184 0.478-0.29452 0.9504-0.5962 1.4341-0.88117 1.236-0.72913 2.4768-1.4495 3.7144-2.1762 0.0396-0.02388 0.0647-0.07244 0.0962-0.10985 0.017 0.00716 0.0332 0.01512 0.0493 0.02229-0.0137-0.01035-0.0283-0.0199-0.042-0.03025 0.0987-0.05731 0.1965-0.11383 0.2952-0.17114 0.017 0.00716 0.0332 0.01512 0.0494 0.02229-0.0138-0.01035-0.0283-0.0199-0.0421-0.03025 0.0987-0.05731 0.1966-0.11383 0.2952-0.17114 0.017 0.00717 0.0332 0.01512 0.0494 0.02229-0.0138-0.01035-0.0283-0.0199-0.0421-0.03025 0.0987-0.05731 0.1966-0.11383 0.2953-0.17114 0.0169 0.00717 0.0331 0.01513 0.0493 0.02229-0.0137-0.01035-0.0283-0.0199-0.0421-0.03025l0.0033 0.00239z"/>
  <path d="m26.631 27.873c-0.059 0.0191-0.1181 0.0374-0.1771 0.0566-0.4773 0.0214-0.9553 0.0605-1.4325 0.0612-4.0929 0.0048-8.1858 0.0024-12.278 0.0032-0.1108 0-0.2216 0.0048-0.3324 0.0072h-0.3034c-2.7817-0.0016-5.5634-0.0024-8.3451-0.0064-0.22568 0-0.45054-0.0286-0.67622-0.0438-0.51363-0.2395-1.0685-0.4194-1.532-0.7307-0.80725-0.5421-1.3185-1.3166-1.4916-2.2797-0.038017-0.2094-0.061474-0.4251-0.061474-0.6376-0.0016177-6.4834-0.0032355-12.966 0.0032355-19.449 0-0.26666 0.079269-0.53332 0.12133-0.79998 0.015369-0.0605 0.030737-0.1202 0.046106-0.18069 0.039635-0.0796 0.07846-0.1592 0.1181-0.23801 0.69158-1.5442 1.9243-2.3211 3.6092-2.341 2.8149-0.03264 5.6297-0.00956 8.4454-0.00876 0.0364 0 0.0728 0.01194 0.1537 0.02627-1.0329 0.60973-2.027 1.198-3.0236 1.7838-0.22648 0.13293-0.4829 0.22686-0.68269 0.39083-0.37127 0.30487-0.78784 0.36616-1.2497 0.36059-1.1907-0.01512-2.3813 0.00637-3.572-0.00876-0.81292-0.01034-1.2448 0.47999-1.3638 1.0077-0.1367 0.60336 0.24024 1.2664 0.85013 1.4646 0.1375 0.04458 0.28957 0.06209 0.43517 0.06209 7.2038 0.00318 14.408 0.00159 21.612 0.00637 0.3785 0 0.7571 0.04616 1.1356 0.07004 0.0631 0.03503 0.127 0.07005 0.1901 0.10508 0.872 0.40357 1.3451 1.1224 1.6056 1.998 0.0396 0.13293-0.0113 0.28974-0.0113 0.43541-0.0016 0.81192-8e-4 1.6238-8e-4 2.4787-0.1254 0-0.2322-8e-4 -0.3381 0-1.1389 0.0104-2.2794-0.0207-3.4151 0.0438-1.1583 0.0661-2.209 0.4752-3.119 1.2076-0.944 0.7601-1.6113 1.701-1.9429 2.8608-0.2184 0.7641-0.2799 1.5346-0.186 2.3322 0.148 1.2545 0.6932 2.3212 1.5522 3.2183 0.8566 0.8947 1.9299 1.467 3.1699 1.6811 0.419 0.0724 0.855 0.0669 1.2829 0.0716 0.986 0.0096 1.972 0.0032 2.9953 0.0032 0 0.1895 0.0016 0.3542 0 0.5198-0.0089 0.8422 0.0428 1.6923-0.0542 2.5249-0.0461 0.3972-0.3236 0.8016-0.5889 1.1311-0.2313 0.2874-0.5921 0.4728-0.8954 0.7037-0.021 0.0159-0.0421 0.0318-0.0631 0.0477-0.0404 0.0072-0.0817 0.0144-0.1221 0.0207-0.0235 0.0144-0.047 0.0287-0.0704 0.043l0.0024-0.0024z"/>
 </g>
</svg>
